<?xml version="1.0" encoding="UTF-8" standalone="no"?>
<!DOCTYPE svg PUBLIC "-//W3C//DTD SVG 1.1//EN"
 "http://www.w3.org/Graphics/SVG/1.1/DTD/svg11.dtd">
<!-- Generated by graphviz version 2.43.0 (0)
 -->
<!-- Title: %3 Pages: 1 -->
<svg width="1240pt" height="548pt"
 viewBox="0.00 0.00 1240.21 548.00" xmlns="http://www.w3.org/2000/svg" xmlns:xlink="http://www.w3.org/1999/xlink">
<g id="graph0" class="graph" transform="scale(1 1) rotate(0) translate(4 544)">
<title>%3</title>
<polygon fill="white" stroke="transparent" points="-4,4 -4,-544 1236.21,-544 1236.21,4 -4,4"/>
<!-- [root] aws_elb.web (expand) -->
<g id="node1" class="node">
<title>[root] aws_elb.web (expand)</title>
<polygon fill="none" stroke="black" points="695.88,-396 588.88,-396 588.88,-360 695.88,-360 695.88,-396"/>
<text text-anchor="middle" x="642.38" y="-374.3" font-family="Times,serif" font-size="14.00">aws_elb.web</text>
</g>
<!-- [root] aws_instance.web (expand) -->
<g id="node2" class="node">
<title>[root] aws_instance.web (expand)</title>
<polygon fill="none" stroke="black" points="605.88,-324 460.88,-324 460.88,-288 605.88,-288 605.88,-324"/>
<text text-anchor="middle" x="533.38" y="-302.3" font-family="Times,serif" font-size="14.00">aws_instance.web</text>
</g>
<!-- [root] aws_elb.web (expand)&#45;&gt;[root] aws_instance.web (expand) -->
<g id="edge1" class="edge">
<title>[root] aws_elb.web (expand)&#45;&gt;[root] aws_instance.web (expand)</title>
<path fill="none" stroke="black" d="M615.72,-359.88C601.6,-350.81 584.07,-339.55 568.82,-329.76"/>
<polygon fill="black" stroke="black" points="570.45,-326.65 560.15,-324.19 566.67,-332.54 570.45,-326.65"/>
</g>
<!-- [root] aws_security_group.elb (expand) -->
<g id="node7" class="node">
<title>[root] aws_security_group.elb (expand)</title>
<polygon fill="none" stroke="black" points="808.38,-324 624.38,-324 624.38,-288 808.38,-288 808.38,-324"/>
<text text-anchor="middle" x="716.38" y="-302.3" font-family="Times,serif" font-size="14.00">aws_security_group.elb</text>
</g>
<!-- [root] aws_elb.web (expand)&#45;&gt;[root] aws_security_group.elb (expand) -->
<g id="edge2" class="edge">
<title>[root] aws_elb.web (expand)&#45;&gt;[root] aws_security_group.elb (expand)</title>
<path fill="none" stroke="black" d="M660.67,-359.7C669.81,-351.05 681.02,-340.45 690.98,-331.03"/>
<polygon fill="black" stroke="black" points="693.44,-333.52 698.3,-324.1 688.63,-328.43 693.44,-333.52"/>
</g>
<!-- [root] aws_key_pair.auth (expand) -->
<g id="node4" class="node">
<title>[root] aws_key_pair.auth (expand)</title>
<polygon fill="none" stroke="black" points="241.38,-252 95.38,-252 95.38,-216 241.38,-216 241.38,-252"/>
<text text-anchor="middle" x="168.38" y="-230.3" font-family="Times,serif" font-size="14.00">aws_key_pair.auth</text>
</g>
<!-- [root] aws_instance.web (expand)&#45;&gt;[root] aws_key_pair.auth (expand) -->
<g id="edge3" class="edge">
<title>[root] aws_instance.web (expand)&#45;&gt;[root] aws_key_pair.auth (expand)</title>
<path fill="none" stroke="black" d="M460.6,-291.77C405.75,-281.7 328.39,-267.32 251.54,-252.21"/>
<polygon fill="black" stroke="black" points="252.17,-248.77 241.69,-250.27 250.82,-255.64 252.17,-248.77"/>
</g>
<!-- [root] aws_security_group.default (expand) -->
<g id="node6" class="node">
<title>[root] aws_security_group.default (expand)</title>
<polygon fill="none" stroke="black" points="471.38,-252 259.38,-252 259.38,-216 471.38,-216 471.38,-252"/>
<text text-anchor="middle" x="365.38" y="-230.3" font-family="Times,serif" font-size="14.00">aws_security_group.default</text>
</g>
<!-- [root] aws_instance.web (expand)&#45;&gt;[root] aws_security_group.default (expand) -->
<g id="edge4" class="edge">
<title>[root] aws_instance.web (expand)&#45;&gt;[root] aws_security_group.default (expand)</title>
<path fill="none" stroke="black" d="M492.28,-287.88C469.22,-278.26 440.25,-266.19 415.81,-256.01"/>
<polygon fill="black" stroke="black" points="416.92,-252.68 406.35,-252.07 414.23,-259.15 416.92,-252.68"/>
</g>
<!-- [root] aws_subnet.default (expand) -->
<g id="node8" class="node">
<title>[root] aws_subnet.default (expand)</title>
<polygon fill="none" stroke="black" points="644.88,-252 489.88,-252 489.88,-216 644.88,-216 644.88,-252"/>
<text text-anchor="middle" x="567.38" y="-230.3" font-family="Times,serif" font-size="14.00">aws_subnet.default</text>
</g>
<!-- [root] aws_instance.web (expand)&#45;&gt;[root] aws_subnet.default (expand) -->
<g id="edge5" class="edge">
<title>[root] aws_instance.web (expand)&#45;&gt;[root] aws_subnet.default (expand)</title>
<path fill="none" stroke="black" d="M541.79,-287.7C545.66,-279.73 550.33,-270.1 554.62,-261.26"/>
<polygon fill="black" stroke="black" points="557.85,-262.63 559.07,-252.1 551.56,-259.57 557.85,-262.63"/>
</g>
<!-- [root] var.aws_amis -->
<g id="node12" class="node">
<title>[root] var.aws_amis</title>
<polygon fill="none" stroke="black" points="767.88,-252 662.88,-252 662.88,-216 773.88,-216 773.88,-246 767.88,-252"/>
<polyline fill="none" stroke="black" points="767.88,-252 767.88,-246 "/>
<polyline fill="none" stroke="black" points="773.88,-246 767.88,-246 "/>
<text text-anchor="middle" x="718.38" y="-230.3" font-family="Times,serif" font-size="14.00">var.aws_amis</text>
</g>
<!-- [root] aws_instance.web (expand)&#45;&gt;[root] var.aws_amis -->
<g id="edge6" class="edge">
<title>[root] aws_instance.web (expand)&#45;&gt;[root] var.aws_amis</title>
<path fill="none" stroke="black" d="M578.64,-287.88C604.38,-278.14 636.79,-265.87 663.92,-255.61"/>
<polygon fill="black" stroke="black" points="665.16,-258.88 673.27,-252.07 662.68,-252.33 665.16,-258.88"/>
</g>
<!-- [root] aws_internet_gateway.default (expand) -->
<g id="node3" class="node">
<title>[root] aws_internet_gateway.default (expand)</title>
<polygon fill="none" stroke="black" points="1054.38,-324 826.38,-324 826.38,-288 1054.38,-288 1054.38,-324"/>
<text text-anchor="middle" x="940.38" y="-302.3" font-family="Times,serif" font-size="14.00">aws_internet_gateway.default</text>
</g>
<!-- [root] aws_vpc.default (expand) -->
<g id="node9" class="node">
<title>[root] aws_vpc.default (expand)</title>
<polygon fill="none" stroke="black" points="632.88,-180 501.88,-180 501.88,-144 632.88,-144 632.88,-180"/>
<text text-anchor="middle" x="567.38" y="-158.3" font-family="Times,serif" font-size="14.00">aws_vpc.default</text>
</g>
<!-- [root] aws_internet_gateway.default (expand)&#45;&gt;[root] aws_vpc.default (expand) -->
<g id="edge7" class="edge">
<title>[root] aws_internet_gateway.default (expand)&#45;&gt;[root] aws_vpc.default (expand)</title>
<path fill="none" stroke="black" d="M918.9,-287.99C892.48,-267.9 845.57,-234.84 800.38,-216 749.9,-194.96 689.63,-181.53 643.03,-173.46"/>
<polygon fill="black" stroke="black" points="643.45,-169.98 633,-171.77 642.28,-176.88 643.45,-169.98"/>
</g>
<!-- [root] provider[&quot;registry.terraform.io/hashicorp/aws&quot;] -->
<g id="node11" class="node">
<title>[root] provider[&quot;registry.terraform.io/hashicorp/aws&quot;]</title>
<polygon fill="none" stroke="black" points="325.38,-108 0.12,-90 325.38,-72 650.65,-90 325.38,-108"/>
<text text-anchor="middle" x="325.38" y="-86.3" font-family="Times,serif" font-size="14.00">provider[&quot;registry.terraform.io/hashicorp/aws&quot;]</text>
</g>
<!-- [root] aws_key_pair.auth (expand)&#45;&gt;[root] provider[&quot;registry.terraform.io/hashicorp/aws&quot;] -->
<g id="edge8" class="edge">
<title>[root] aws_key_pair.auth (expand)&#45;&gt;[root] provider[&quot;registry.terraform.io/hashicorp/aws&quot;]</title>
<path fill="none" stroke="black" d="M155.89,-215.96C143.45,-196.75 128.36,-165.39 144.38,-144 156.44,-127.9 198.62,-115.05 239.23,-106.03"/>
<polygon fill="black" stroke="black" points="240.18,-109.41 249.22,-103.88 238.71,-102.56 240.18,-109.41"/>
</g>
<!-- [root] var.key_name -->
<g id="node14" class="node">
<title>[root] var.key_name</title>
<polygon fill="none" stroke="black" points="260.88,-180 153.88,-180 153.88,-144 266.88,-144 266.88,-174 260.88,-180"/>
<polyline fill="none" stroke="black" points="260.88,-180 260.88,-174 "/>
<polyline fill="none" stroke="black" points="266.88,-174 260.88,-174 "/>
<text text-anchor="middle" x="210.38" y="-158.3" font-family="Times,serif" font-size="14.00">var.key_name</text>
</g>
<!-- [root] aws_key_pair.auth (expand)&#45;&gt;[root] var.key_name -->
<g id="edge9" class="edge">
<title>[root] aws_key_pair.auth (expand)&#45;&gt;[root] var.key_name</title>
<path fill="none" stroke="black" d="M178.76,-215.7C183.65,-207.56 189.57,-197.69 194.96,-188.7"/>
<polygon fill="black" stroke="black" points="197.98,-190.48 200.12,-180.1 191.97,-186.88 197.98,-190.48"/>
</g>
<!-- [root] var.public_key_path -->
<g id="node15" class="node">
<title>[root] var.public_key_path</title>
<polygon fill="none" stroke="black" points="435.88,-180 284.88,-180 284.88,-144 441.88,-144 441.88,-174 435.88,-180"/>
<polyline fill="none" stroke="black" points="435.88,-180 435.88,-174 "/>
<polyline fill="none" stroke="black" points="441.88,-174 435.88,-174 "/>
<text text-anchor="middle" x="363.38" y="-158.3" font-family="Times,serif" font-size="14.00">var.public_key_path</text>
</g>
<!-- [root] aws_key_pair.auth (expand)&#45;&gt;[root] var.public_key_path -->
<g id="edge10" class="edge">
<title>[root] aws_key_pair.auth (expand)&#45;&gt;[root] var.public_key_path</title>
<path fill="none" stroke="black" d="M216.08,-215.88C243.33,-206.09 277.68,-193.77 306.35,-183.47"/>
<polygon fill="black" stroke="black" points="307.6,-186.74 315.83,-180.07 305.24,-180.15 307.6,-186.74"/>
</g>
<!-- [root] aws_route.internet_access (expand) -->
<g id="node5" class="node">
<title>[root] aws_route.internet_access (expand)</title>
<polygon fill="none" stroke="black" points="1042.88,-396 837.88,-396 837.88,-360 1042.88,-360 1042.88,-396"/>
<text text-anchor="middle" x="940.38" y="-374.3" font-family="Times,serif" font-size="14.00">aws_route.internet_access</text>
</g>
<!-- [root] aws_route.internet_access (expand)&#45;&gt;[root] aws_internet_gateway.default (expand) -->
<g id="edge11" class="edge">
<title>[root] aws_route.internet_access (expand)&#45;&gt;[root] aws_internet_gateway.default (expand)</title>
<path fill="none" stroke="black" d="M940.38,-359.7C940.38,-351.98 940.38,-342.71 940.38,-334.11"/>
<polygon fill="black" stroke="black" points="943.88,-334.1 940.38,-324.1 936.88,-334.1 943.88,-334.1"/>
</g>
<!-- [root] aws_security_group.default (expand)&#45;&gt;[root] aws_vpc.default (expand) -->
<g id="edge12" class="edge">
<title>[root] aws_security_group.default (expand)&#45;&gt;[root] aws_vpc.default (expand)</title>
<path fill="none" stroke="black" d="M414.54,-215.97C442.88,-206.14 478.71,-193.73 508.54,-183.39"/>
<polygon fill="black" stroke="black" points="509.7,-186.69 518,-180.11 507.41,-180.08 509.7,-186.69"/>
</g>
<!-- [root] aws_security_group.elb (expand)&#45;&gt;[root] aws_vpc.default (expand) -->
<g id="edge13" class="edge">
<title>[root] aws_security_group.elb (expand)&#45;&gt;[root] aws_vpc.default (expand)</title>
<path fill="none" stroke="black" d="M748.91,-287.98C762.17,-279.18 776.08,-267.09 783.38,-252 790.35,-237.6 793.26,-228.59 783.38,-216 766,-193.83 698.25,-179.72 643.21,-171.68"/>
<polygon fill="black" stroke="black" points="643.48,-168.18 633.09,-170.24 642.5,-175.11 643.48,-168.18"/>
</g>
<!-- [root] aws_subnet.default (expand)&#45;&gt;[root] aws_vpc.default (expand) -->
<g id="edge14" class="edge">
<title>[root] aws_subnet.default (expand)&#45;&gt;[root] aws_vpc.default (expand)</title>
<path fill="none" stroke="black" d="M567.38,-215.7C567.38,-207.98 567.38,-198.71 567.38,-190.11"/>
<polygon fill="black" stroke="black" points="570.88,-190.1 567.38,-180.1 563.88,-190.1 570.88,-190.1"/>
</g>
<!-- [root] aws_vpc.default (expand)&#45;&gt;[root] provider[&quot;registry.terraform.io/hashicorp/aws&quot;] -->
<g id="edge15" class="edge">
<title>[root] aws_vpc.default (expand)&#45;&gt;[root] provider[&quot;registry.terraform.io/hashicorp/aws&quot;]</title>
<path fill="none" stroke="black" d="M508.49,-143.97C470.86,-133.08 422.24,-119.02 384.55,-108.12"/>
<polygon fill="black" stroke="black" points="385.3,-104.69 374.73,-105.27 383.36,-111.41 385.3,-104.69"/>
</g>
<!-- [root] output.address -->
<g id="node10" class="node">
<title>[root] output.address</title>
<polygon fill="none" stroke="black" points="624.88,-468 505.88,-468 505.88,-432 630.88,-432 630.88,-462 624.88,-468"/>
<polyline fill="none" stroke="black" points="624.88,-468 624.88,-462 "/>
<polyline fill="none" stroke="black" points="630.88,-462 624.88,-462 "/>
<text text-anchor="middle" x="568.38" y="-446.3" font-family="Times,serif" font-size="14.00">output.address</text>
</g>
<!-- [root] output.address&#45;&gt;[root] aws_elb.web (expand) -->
<g id="edge16" class="edge">
<title>[root] output.address&#45;&gt;[root] aws_elb.web (expand)</title>
<path fill="none" stroke="black" d="M586.67,-431.7C595.81,-423.05 607.02,-412.45 616.98,-403.03"/>
<polygon fill="black" stroke="black" points="619.44,-405.52 624.3,-396.1 614.63,-400.43 619.44,-405.52"/>
</g>
<!-- [root] var.aws_region -->
<g id="node13" class="node">
<title>[root] var.aws_region</title>
<polygon fill="none" stroke="black" points="380.88,-36 263.88,-36 263.88,0 386.88,0 386.88,-30 380.88,-36"/>
<polyline fill="none" stroke="black" points="380.88,-36 380.88,-30 "/>
<polyline fill="none" stroke="black" points="386.88,-30 380.88,-30 "/>
<text text-anchor="middle" x="325.38" y="-14.3" font-family="Times,serif" font-size="14.00">var.aws_region</text>
</g>
<!-- [root] provider[&quot;registry.terraform.io/hashicorp/aws&quot;]&#45;&gt;[root] var.aws_region -->
<g id="edge19" class="edge">
<title>[root] provider[&quot;registry.terraform.io/hashicorp/aws&quot;]&#45;&gt;[root] var.aws_region</title>
<path fill="none" stroke="black" d="M325.38,-71.7C325.38,-63.98 325.38,-54.71 325.38,-46.11"/>
<polygon fill="black" stroke="black" points="328.88,-46.1 325.38,-36.1 321.88,-46.1 328.88,-46.1"/>
</g>
<!-- [root] provider[&quot;registry.terraform.io/hashicorp/aws&quot;] (close) -->
<g id="node16" class="node">
<title>[root] provider[&quot;registry.terraform.io/hashicorp/aws&quot;] (close)</title>
<ellipse fill="none" stroke="black" cx="940.38" cy="-450" rx="291.65" ry="18"/>
<text text-anchor="middle" x="940.38" y="-446.3" font-family="Times,serif" font-size="14.00">[root] provider[&quot;registry.terraform.io/hashicorp/aws&quot;] (close)</text>
</g>
<!-- [root] provider[&quot;registry.terraform.io/hashicorp/aws&quot;] (close)&#45;&gt;[root] aws_elb.web (expand) -->
<g id="edge17" class="edge">
<title>[root] provider[&quot;registry.terraform.io/hashicorp/aws&quot;] (close)&#45;&gt;[root] aws_elb.web (expand)</title>
<path fill="none" stroke="black" d="M870.14,-432.5C820.5,-420.84 754.49,-405.33 706.32,-394.02"/>
<polygon fill="black" stroke="black" points="706.86,-390.55 696.32,-391.67 705.26,-397.37 706.86,-390.55"/>
</g>
<!-- [root] provider[&quot;registry.terraform.io/hashicorp/aws&quot;] (close)&#45;&gt;[root] aws_route.internet_access (expand) -->
<g id="edge18" class="edge">
<title>[root] provider[&quot;registry.terraform.io/hashicorp/aws&quot;] (close)&#45;&gt;[root] aws_route.internet_access (expand)</title>
<path fill="none" stroke="black" d="M940.38,-431.7C940.38,-423.98 940.38,-414.71 940.38,-406.11"/>
<polygon fill="black" stroke="black" points="943.88,-406.1 940.38,-396.1 936.88,-406.1 943.88,-406.1"/>
</g>
<!-- [root] root -->
<g id="node17" class="node">
<title>[root] root</title>
<ellipse fill="none" stroke="black" cx="754.38" cy="-522" rx="58.49" ry="18"/>
<text text-anchor="middle" x="754.38" y="-518.3" font-family="Times,serif" font-size="14.00">[root] root</text>
</g>
<!-- [root] root&#45;&gt;[root] output.address -->
<g id="edge20" class="edge">
<title>[root] root&#45;&gt;[root] output.address</title>
<path fill="none" stroke="black" d="M718.96,-507.67C691.83,-497.46 653.93,-483.19 622.94,-471.53"/>
<polygon fill="black" stroke="black" points="624.15,-468.25 613.56,-468 621.69,-474.8 624.15,-468.25"/>
</g>
<!-- [root] root&#45;&gt;[root] provider[&quot;registry.terraform.io/hashicorp/aws&quot;] (close) -->
<g id="edge21" class="edge">
<title>[root] root&#45;&gt;[root] provider[&quot;registry.terraform.io/hashicorp/aws&quot;] (close)</title>
<path fill="none" stroke="black" d="M789.8,-507.67C817.03,-497.42 855.1,-483.09 886.15,-471.41"/>
<polygon fill="black" stroke="black" points="887.42,-474.67 895.55,-467.87 884.95,-468.12 887.42,-474.67"/>
</g>
</g>
</svg>
